<svg width="42" height="42" viewBox="0 0 42 42" fill="none" xmlns="http://www.w3.org/2000/svg">
<g clip-path="url(#clip0_514_377)">
<path d="M21.8406 18.3854C20.2922 17.6533 19.281 17.7794 17.3354 19.0167L16.8284 19.3482L15.9835 19.9362C15.8812 20.0092 15.7791 20.0824 15.6773 20.1559C15.155 20.5319 14.5898 20.7225 13.7078 20.8638L12.8602 20.9869C11.4099 21.2011 10.5604 21.5042 9.77363 22.3335C9.44072 22.6612 9.07063 23.2253 8.83733 23.7279C7.9017 25.7068 8.58209 27.9043 10.4613 28.7928L10.7485 28.92C10.8914 28.9789 11.0324 29.0298 11.1826 29.0764L11.4973 29.1635L11.6677 29.2039L12.0495 29.2797L12.2645 29.3167L13.0274 29.4334L14.0572 29.5716L14.6663 29.6644C15.3712 29.7824 15.8921 29.9253 16.2944 30.1155C16.698 30.3063 17.1372 30.6188 17.6763 31.0875L18.1346 31.4994L18.8966 32.207L19.4692 32.7232L19.7886 32.9947C19.889 33.0767 19.983 33.1512 20.0744 33.2189L20.3415 33.4069C20.4728 33.4933 20.6016 33.57 20.7379 33.6431L21.0184 33.7843C22.8976 34.6728 25.0277 33.8041 25.9667 31.8182C26.2035 31.3173 26.4018 30.6763 26.4482 30.1714C26.5729 29.1913 26.3323 28.3614 25.7271 27.204L25.531 26.8386L25.1224 26.1C24.63 25.1926 24.404 24.5748 24.3614 23.906L24.3137 23.1873L24.2577 22.5408C24.0124 19.9906 23.5239 19.1813 21.8406 18.3854Z" fill="#091716"/>
<path d="M32.4628 20.5359L32.4305 20.5206C31.1082 19.9217 29.3585 20.472 28.026 21.7359C26.38 23.2953 25.7582 25.5629 26.978 26.9469C27.198 27.1945 27.4623 27.3906 27.7572 27.53C29.0822 28.1565 30.8549 27.6078 32.1993 26.3325C33.8405 24.7722 34.4585 22.5014 33.2458 21.1221C33.0273 20.8761 32.7602 20.6764 32.4628 20.5359Z" fill="#091716"/>
<path d="M21.6006 8.65018C21.4801 8.59318 21.4005 8.55818 21.3024 8.52892L21.1941 8.49881C19.4403 7.94087 17.6018 9.41984 16.9632 11.5754C16.3781 13.5706 16.9521 15.6713 18.5215 16.4133L18.7253 16.5031C18.7568 16.5148 18.7886 16.5255 18.8208 16.5351L18.928 16.5647C20.6829 17.1231 22.5203 15.6437 23.1589 13.4881C23.7472 11.4918 23.1721 9.39321 21.6006 8.65018Z" fill="#091716"/>
<path d="M29.5271 12.2835C27.9567 11.541 25.9716 12.4304 24.8041 14.1503C23.5418 16.0123 23.5644 18.3712 25.1762 19.419C25.2804 19.4854 25.3813 19.5423 25.4846 19.5912C26.9808 20.2986 28.8656 19.5238 30.0486 17.9522L30.2097 17.7255C31.472 15.8634 31.4495 13.5046 29.8377 12.4567C29.7383 12.3919 29.6345 12.334 29.5271 12.2835Z" fill="#091716"/>
<path d="M13.8541 11.0002C13.5592 10.8608 13.2411 10.7815 12.9143 10.7679C11.0664 10.7041 9.7085 12.6263 9.5478 14.8854C9.41536 16.7337 10.1141 18.4509 11.4391 19.0774C11.734 19.2168 12.0521 19.2961 12.3789 19.3097C14.2268 19.3734 15.5847 17.4513 15.7454 15.1922C15.8779 13.3439 15.1791 11.6267 13.8541 11.0002Z" fill="#091716"/>
</g>
<defs>
<clipPath id="clip0_514_377">
<rect width="31.1405" height="31.1405" fill="white" transform="translate(13.3107) rotate(25.3053)"/>
</clipPath>
</defs>
</svg>
