<svg width="25" height="25" viewBox="0 0 25 25" fill="none" xmlns="http://www.w3.org/2000/svg">
<g clip-path="url(#clip0_514_399)">
<path d="M15.2 14C14.1 12 13.759 11.5 12.5 11.5C11.241 11.5 10.7639 12.255 9.66395 14.247C8.72195 15.95 6.81795 16.092 6.34295 17.538C6.24595 17.803 6.19795 18.215 6.19995 18.5C6.19995 19.676 6.98695 20.5 7.99995 20.5C9.25895 20.5 11 19.5 12.5 19.5C14 19.5 15.741 20.5 17 20.5C18.013 20.5 18.7999 19.677 18.7999 18.5C18.7999 18.215 18.7509 17.803 18.6539 17.538C18.1789 16.087 16.142 15.703 15.2 14Z" stroke="#fff3ff" stroke-width="2" stroke-linecap="round" stroke-linejoin="round"/>
<path d="M22.1882 8.582C22.0597 8.5277 21.9216 8.49981 21.7822 8.5H21.7672C21.0322 8.512 20.2072 9.25 19.7742 10.366C19.2552 11.701 19.4942 13.066 20.3122 13.418C20.4412 13.473 20.5792 13.5 20.7182 13.5C21.4572 13.5 22.2932 12.758 22.7292 11.634C23.2452 10.299 23.0012 8.934 22.1882 8.582Z" stroke="#fff3ff" stroke-width="2" stroke-linecap="round" stroke-linejoin="round"/>
<path d="M9.47554 9.5C9.53054 9.5 9.58454 9.5 9.63854 9.489C10.5825 9.361 11.1715 8.143 10.9585 6.767C10.7555 5.47 9.91154 4.5 9.02654 4.5C8.97154 4.5 8.91754 4.5 8.86354 4.511C7.91954 4.639 7.33054 5.857 7.54354 7.233C7.74754 8.526 8.59154 9.5 9.47654 9.5H9.47554Z" stroke="#fff3ff" stroke-width="2" stroke-linecap="round" stroke-linejoin="round"/>
<path d="M17.9559 7.233C18.1699 5.857 17.5809 4.639 16.6359 4.511C16.5822 4.50357 16.5281 4.49989 16.4739 4.5C15.5889 4.5 14.7459 5.47 14.5439 6.767C14.3299 8.143 14.9189 9.361 15.8639 9.489C15.9179 9.496 15.9719 9.5 16.0259 9.5C16.9109 9.5 17.7559 8.526 17.9559 7.233Z" stroke="#fff3ff" stroke-width="2" stroke-linecap="round" stroke-linejoin="round"/>
<path d="M5.18982 13.418C6.00582 13.066 6.24382 11.699 5.72582 10.366C5.28982 9.242 4.45482 8.5 3.71682 8.5C3.57682 8.5 3.43982 8.527 3.30982 8.582C2.49382 8.934 2.25582 10.301 2.77382 11.634C3.20982 12.758 4.04482 13.5 4.78282 13.5C4.92282 13.5 5.05982 13.473 5.18982 13.418Z" stroke="#fff3ff" stroke-width="2" stroke-linecap="round" stroke-linejoin="round"/>
</g>
<defs>
<clipPath id="clip0_514_399">
<rect width="24" height="24" fill="white" transform="translate(0.5 0.5)"/>
</clipPath>
</defs>
</svg>
